{"glyphs":{"0":{"ha":491,"x_min":46,"x_max":446,"o":"m 46 210 l 46 811 q 71 921 48 876 q 129 997 92 968 q 245 1032 176 1032 q 361 997 314 1032 q 421 921 401 966 q 446 811 444 876 l 446 210 q 421 98 444 144 q 361 24 402 55 q 245 -11 318 -11 q 129 24 172 -11 q 71 98 91 53 q 46 210 48 144 m 196 210 q 216 146 196 170 q 245 135 227 135 q 290 172 281 135 q 296 210 296 185 l 296 811 q 277 875 296 851 q 245 886 265 886 q 201 848 213 886 q 196 811 196 834 l 196 210 "},"1":{"ha":322,"x_min":17,"x_max":267,"o":"m 17 800 l 17 896 q 143 968 88 909 q 176 1021 165 995 l 267 1021 l 267 0 l 117 0 l 117 800 l 17 800 "},"2":{"ha":496,"x_min":37,"x_max":444,"o":"m 37 0 l 37 149 q 163 364 103 249 q 249 566 214 463 q 292 768 290 687 q 283 851 292 823 q 241 893 271 893 q 201 856 213 893 q 192 768 192 823 l 192 697 l 41 697 l 41 768 q 81 951 41 886 q 241 1032 129 1032 q 400 958 350 1032 q 441 778 441 896 q 354 435 441 642 q 207 149 294 296 l 444 149 l 444 0 l 37 0 "},"3":{"ha":465,"x_min":31,"x_max":429,"o":"m 31 726 q 57 924 31 858 q 222 1032 102 1032 q 390 932 341 1032 q 416 812 416 878 q 399 642 416 703 q 345 543 381 580 l 343 542 q 411 432 393 503 q 429 261 429 362 q 428 232 429 248 q 403 115 425 180 q 315 7 374 39 q 235 -11 283 -11 q 65 98 111 -11 q 36 294 36 165 l 183 294 q 196 157 183 199 q 211 129 202 136 q 235 121 220 121 q 277 164 267 121 q 282 250 282 189 q 283 338 282 311 q 241 443 283 415 q 168 461 212 459 l 155 461 l 155 586 q 227 600 202 589 q 260 632 251 610 q 269 686 269 651 l 269 768 q 264 856 269 829 q 222 900 255 900 q 187 865 194 900 q 178 726 178 827 l 31 726 "},"4":{"ha":464,"x_min":17,"x_max":456,"o":"m 17 222 l 17 354 l 236 1021 l 386 1021 l 386 354 l 456 354 l 456 222 l 386 222 l 386 0 l 249 0 l 249 222 l 17 222 m 144 354 l 249 354 l 249 704 l 240 704 l 232 673 l 144 354 "},"5":{"ha":477,"x_min":50,"x_max":441,"o":"m 50 297 l 200 297 l 200 257 q 210 150 200 178 q 245 119 220 119 q 281 149 271 119 q 292 256 292 180 l 292 484 q 279 537 292 517 q 244 558 267 558 q 203 530 222 558 q 186 484 186 504 l 60 484 l 60 1021 l 422 1021 l 422 872 l 189 872 l 189 660 q 244 690 221 683 q 275 694 259 696 q 416 602 374 694 q 441 484 441 547 l 441 256 q 412 87 441 147 q 245 -11 366 -11 q 79 93 124 -11 q 50 297 50 159 "},"6":{"ha":475,"x_min":45,"x_max":436,"o":"m 45 210 l 45 790 q 72 939 45 886 q 240 1032 121 1032 q 408 939 359 1032 q 436 790 436 884 l 436 726 l 286 726 q 279 865 286 832 q 266 893 275 885 q 240 901 257 901 q 204 875 212 901 q 195 790 195 849 l 195 608 q 269 633 237 633 q 411 547 369 633 q 436 418 436 496 l 436 210 q 407 82 436 136 q 240 -11 358 -11 q 74 82 123 -11 q 45 210 45 136 m 195 165 q 206 136 195 152 q 240 119 218 119 q 274 136 261 119 q 286 165 286 153 l 286 471 q 274 500 286 484 q 240 517 261 517 q 207 503 218 517 q 195 475 196 490 l 195 165 "},"7":{"ha":399,"x_min":5,"x_max":383,"o":"m 5 872 l 5 1021 l 383 1021 l 383 871 l 233 0 l 78 0 l 231 872 l 5 872 "},"8":{"ha":472,"x_min":36,"x_max":436,"o":"m 36 218 l 36 338 q 56 450 36 397 q 114 539 76 503 q 62 623 80 573 q 45 726 45 672 l 45 812 q 71 932 45 879 q 236 1032 119 1032 q 403 932 354 1032 q 428 812 428 880 l 428 726 q 410 623 428 672 q 358 539 392 573 q 416 450 396 503 q 436 338 436 397 l 436 218 q 428 147 436 187 q 375 43 416 85 q 236 -11 324 -11 q 97 43 148 -11 q 45 147 57 85 q 36 218 36 191 m 195 161 q 236 126 205 126 q 283 167 275 126 q 290 278 290 211 q 283 414 290 365 q 236 458 275 458 q 191 414 197 458 q 183 282 182 370 q 195 161 184 195 m 200 643 q 236 606 206 606 q 273 643 265 606 q 281 760 281 686 q 273 865 281 822 q 236 900 265 900 q 203 869 211 900 q 193 760 194 840 q 200 643 192 680 "},"9":{"ha":475,"x_min":39,"x_max":431,"o":"m 39 231 l 39 294 l 189 294 q 196 155 189 189 q 209 127 200 136 q 235 119 218 119 q 272 146 262 119 q 281 231 281 176 l 281 422 q 205 397 238 397 q 64 484 106 397 q 39 612 39 535 l 39 811 q 68 940 39 884 q 235 1032 118 1032 q 401 940 351 1032 q 431 811 431 884 l 431 231 q 403 83 431 136 q 235 -11 355 -11 q 66 83 115 -11 q 39 231 39 136 m 189 559 q 201 530 189 547 q 235 514 214 514 q 268 527 256 514 q 281 555 279 541 l 281 856 q 269 885 281 869 q 235 901 258 901 q 201 885 214 901 q 189 856 189 869 l 189 559 "},"\u0000":{"ha":1389,"x_min":0,"x_max":0,"o":""},"\r":{"ha":1389,"x_min":0,"x_max":0,"o":""}," ":{"ha":214,"x_min":0,"x_max":0,"o":""},"!":{"ha":262,"x_min":50,"x_max":212,"o":"m 50 1021 l 212 1021 l 175 275 l 87 275 l 50 1021 m 58 0 l 58 154 l 204 154 l 204 0 l 58 0 "},"\"":{"ha":361,"x_min":53,"x_max":371,"o":"m 53 1021 l 199 1021 l 178 647 l 74 647 l 53 1021 m 225 1021 l 371 1021 l 350 647 l 245 647 l 225 1021 "},"#":{"ha":836,"x_min":33,"x_max":803,"o":"m 33 297 l 52 429 l 186 429 l 211 604 l 78 604 l 96 736 l 229 736 l 268 1021 l 401 1021 l 363 736 l 539 736 l 578 1021 l 711 1021 l 672 736 l 803 736 l 785 604 l 654 604 l 629 429 l 758 429 l 741 297 l 611 297 l 571 0 l 437 0 l 478 297 l 301 297 l 261 0 l 127 0 l 168 297 l 33 297 m 319 429 l 496 429 l 521 604 l 345 604 l 319 429 "},"$":{"ha":469,"x_min":25,"x_max":444,"o":"m 25 243 l 155 252 q 178 164 157 197 q 243 125 200 125 q 292 164 276 125 q 306 250 306 198 q 267 368 306 300 q 229 425 258 383 q 142 545 177 492 q 62 699 83 631 q 49 783 49 739 q 79 926 49 868 q 195 1015 117 998 l 195 1104 l 278 1104 l 278 1019 q 395 954 353 1012 q 437 828 428 908 l 307 811 q 288 873 302 850 q 244 896 274 897 q 201 861 215 896 q 187 786 187 825 q 227 669 187 735 q 304 557 252 626 q 329 522 313 545 q 351 490 345 499 q 432 338 408 410 q 444 252 444 296 q 408 87 444 149 q 278 1 364 11 l 278 -146 l 195 -146 l 195 4 q 66 89 110 19 q 25 243 27 152 "},"%":{"ha":679,"x_min":37,"x_max":643,"o":"m 37 618 l 37 914 q 83 1014 37 974 q 146 1032 104 1032 q 203 1016 182 1032 q 239 972 224 1000 q 253 914 251 947 l 253 618 q 207 517 251 555 q 146 498 186 498 q 50 558 79 498 q 37 618 37 585 m 107 0 l 482 1021 l 571 1021 l 200 0 l 107 0 m 121 618 q 146 581 117 581 q 170 618 170 581 l 170 914 q 160 946 170 932 q 146 951 157 951 q 122 932 130 951 q 121 914 119 921 l 121 618 m 428 107 l 428 403 q 473 504 428 465 q 536 522 494 522 q 594 506 573 522 q 629 463 615 490 q 643 403 641 437 l 643 107 q 597 7 641 44 q 536 -11 578 -11 q 440 47 471 -11 q 428 107 428 73 m 511 107 q 521 75 510 89 q 536 68 526 68 q 557 87 549 68 q 559 107 559 98 l 559 403 q 550 435 559 420 q 536 440 547 440 q 524 437 529 440 q 517 431 519 434 q 513 421 515 427 q 511 403 510 410 l 511 107 "},"&":{"ha":579,"x_min":33,"x_max":551,"o":"m 33 214 q 42 295 33 255 q 71 374 52 334 q 105 441 90 414 q 149 510 121 469 q 77 810 77 656 q 151 997 79 930 q 260 1032 189 1032 q 419 921 377 1032 q 400 669 466 792 q 300 515 363 600 q 400 322 357 385 q 432 465 414 362 l 551 443 q 536 340 548 393 q 489 200 519 262 q 528 164 515 172 q 551 149 546 151 l 551 -11 q 532 -5 545 -11 q 456 41 506 4 q 410 83 435 56 q 239 -11 327 -11 q 92 57 151 -11 q 33 214 33 124 m 199 149 q 245 119 217 119 q 279 128 263 119 q 304 147 294 137 q 330 178 314 157 q 212 378 256 296 q 182 288 192 347 q 178 217 175 260 q 199 149 182 174 m 211 861 q 216 728 199 803 q 244 643 222 696 q 313 814 313 749 q 293 897 315 868 q 260 913 282 913 q 211 861 222 913 "},"'":{"ha":210,"x_min":39,"x_max":184,"o":"m 39 1021 l 184 1021 l 164 647 l 60 647 l 39 1021 "},"(":{"ha":380,"x_min":45,"x_max":353,"o":"m 45 437 q 143 888 45 659 q 243 1078 188 991 l 353 1021 q 205 675 259 886 q 178 437 178 568 q 265 17 178 221 q 353 -144 304 -75 l 243 -201 q 75 192 132 -29 q 45 437 45 303 "},")":{"ha":380,"x_min":28,"x_max":336,"o":"m 28 -144 q 175 201 119 -13 q 203 437 203 309 q 115 859 203 645 q 28 1021 77 946 l 138 1078 q 306 685 249 897 q 336 437 336 572 q 236 -12 336 221 q 138 -201 191 -117 l 28 -144 "},"*":{"ha":459,"x_min":50,"x_max":410,"o":"m 50 848 l 79 949 l 191 901 l 178 1021 l 282 1021 l 269 901 l 380 949 l 410 848 l 293 825 l 371 732 l 282 677 l 229 781 l 178 677 l 89 732 l 167 825 l 50 848 "},"+":{"ha":719,"x_min":50,"x_max":669,"o":"m 50 440 l 50 557 l 301 557 l 301 791 l 418 791 l 418 557 l 669 557 l 669 440 l 418 440 l 418 205 l 301 205 l 301 440 l 50 440 "},",":{"ha":210,"x_min":31,"x_max":176,"o":"m 31 0 l 31 154 l 176 154 l 176 0 l 100 -180 l 31 -180 l 79 0 l 31 0 "},"-":{"ha":301,"x_min":50,"x_max":252,"o":"m 50 309 l 50 440 l 252 440 l 252 309 l 50 309 "},".":{"ha":218,"x_min":36,"x_max":182,"o":"m 36 0 l 36 154 l 182 154 l 182 0 l 36 0 "},"/":{"ha":488,"x_min":5,"x_max":484,"o":"m 5 -100 l 374 1021 l 484 1021 l 119 -100 l 5 -100 "},":":{"ha":245,"x_min":50,"x_max":196,"o":"m 50 0 l 50 154 l 196 154 l 196 0 l 50 0 m 50 606 l 50 760 l 196 760 l 196 606 l 50 606 "},";":{"ha":245,"x_min":50,"x_max":196,"o":"m 50 0 l 50 154 l 196 154 l 196 0 l 119 -180 l 50 -180 l 98 0 l 50 0 m 50 606 l 50 760 l 196 760 l 196 606 l 50 606 "},"<":{"ha":718,"x_min":50,"x_max":668,"o":"m 50 440 l 50 549 l 668 871 l 668 736 l 195 494 l 668 253 l 668 118 l 50 440 "},"=":{"ha":718,"x_min":50,"x_max":668,"o":"m 50 323 l 50 440 l 668 440 l 668 323 l 50 323 m 50 586 l 50 703 l 668 703 l 668 586 l 50 586 "},">":{"ha":718,"x_min":50,"x_max":668,"o":"m 50 118 l 50 253 l 524 494 l 50 736 l 50 871 l 668 549 l 668 440 l 50 118 "},"?":{"ha":437,"x_min":17,"x_max":410,"o":"m 17 854 q 82 958 31 901 q 229 1026 144 1028 q 379 949 333 1024 q 410 832 410 899 q 401 778 410 806 q 384 733 392 749 q 355 684 375 718 q 343 663 352 678 q 329 639 334 648 q 281 522 295 582 q 272 449 272 484 l 272 275 l 143 275 l 143 449 q 174 632 143 549 q 236 755 193 684 q 272 832 266 804 q 267 871 275 850 q 227 896 254 896 q 167 859 195 896 q 138 798 150 834 l 17 854 m 135 0 l 135 154 l 281 154 l 281 0 l 135 0 "},"@":{"ha":591,"x_min":45,"x_max":553,"o":"m 45 205 l 45 808 q 57 876 45 838 q 96 946 69 913 q 298 1032 163 1032 q 503 946 433 1032 q 541 876 528 913 q 553 808 553 838 l 553 271 l 441 271 l 428 309 q 386 269 415 283 q 351 262 370 262 q 253 379 253 262 l 253 708 q 276 791 253 760 q 351 823 299 823 q 410 800 384 823 q 428 778 424 786 l 428 808 q 403 873 428 843 q 298 916 366 916 q 196 873 233 916 q 170 808 170 842 l 170 205 q 196 142 170 170 q 298 102 231 102 q 412 144 378 102 l 515 86 q 298 -11 444 -11 q 96 74 164 -11 q 57 141 69 106 q 45 205 45 177 m 363 389 q 395 353 363 353 q 428 389 428 353 l 428 697 q 419 724 428 714 q 395 733 410 733 q 363 697 363 733 l 363 389 "},"A":{"ha":519,"x_min":14,"x_max":505,"o":"m 14 0 l 168 1021 l 351 1021 l 505 0 l 359 0 l 332 208 l 187 208 l 160 0 l 14 0 m 208 367 l 311 367 l 268 689 l 264 715 l 256 715 l 252 689 l 208 367 "},"B":{"ha":505,"x_min":56,"x_max":472,"o":"m 56 0 l 56 1021 l 187 1021 q 392 961 328 1021 q 461 750 461 897 q 441 632 461 674 q 368 539 420 587 q 456 414 423 508 q 472 289 472 366 q 424 92 472 165 q 240 0 368 6 l 56 0 m 205 149 q 272 164 250 149 q 317 306 317 197 q 272 447 317 414 q 205 463 250 463 l 205 149 m 205 600 q 272 615 250 600 q 317 736 317 646 q 272 857 317 827 q 205 872 250 872 l 205 600 "},"C":{"ha":480,"x_min":46,"x_max":446,"o":"m 46 210 l 46 811 q 71 921 48 876 q 129 997 92 968 q 245 1032 176 1032 q 361 997 314 1032 q 421 921 401 966 q 446 811 444 876 l 446 671 l 306 671 l 306 811 q 283 875 306 850 q 249 886 272 886 q 203 848 217 886 q 196 811 199 838 l 196 210 q 220 146 198 171 q 249 135 231 135 q 300 172 288 135 q 306 210 306 186 l 306 350 l 446 350 l 446 210 q 421 98 444 144 q 361 24 402 55 q 245 -11 318 -11 q 129 24 172 -11 q 71 98 91 53 q 46 210 48 144 "},"D":{"ha":516,"x_min":56,"x_max":472,"o":"m 56 0 l 56 1021 l 174 1021 q 339 997 280 1021 q 428 916 398 973 q 464 769 455 861 q 472 510 472 677 q 464 252 472 343 q 428 106 455 160 q 339 24 398 48 q 174 0 279 0 l 56 0 m 205 150 q 269 160 248 150 q 301 205 290 170 q 315 314 313 249 q 317 511 317 363 q 315 708 317 659 q 301 817 313 770 q 269 861 290 850 q 205 871 248 871 l 205 150 "},"E":{"ha":426,"x_min":56,"x_max":399,"o":"m 56 0 l 56 1021 l 399 1021 l 399 867 l 205 867 l 205 599 l 345 599 l 345 435 l 205 435 l 205 154 l 399 154 l 399 0 l 56 0 "},"F":{"ha":418,"x_min":56,"x_max":412,"o":"m 56 0 l 56 1021 l 412 1021 l 412 867 l 205 867 l 205 599 l 345 599 l 345 444 l 205 444 l 205 0 l 56 0 "},"G":{"ha":500,"x_min":46,"x_max":446,"o":"m 46 210 l 46 811 q 71 921 48 876 q 129 997 92 968 q 245 1032 176 1032 q 361 997 314 1032 q 421 921 401 966 q 446 811 444 876 l 446 654 l 296 654 l 296 811 q 277 875 296 851 q 245 886 265 886 q 201 848 213 886 q 196 811 196 834 l 196 197 q 216 134 196 157 q 245 122 228 122 q 290 160 281 122 q 296 197 296 173 l 296 382 l 236 382 l 236 509 l 446 509 l 446 0 l 357 0 l 339 49 q 222 -11 291 -11 q 115 24 154 -11 q 62 98 80 54 q 46 197 46 142 q 46 210 46 203 "},"H":{"ha":528,"x_min":56,"x_max":472,"o":"m 56 0 l 56 1021 l 205 1021 l 205 599 l 322 599 l 322 1021 l 472 1021 l 472 0 l 322 0 l 322 444 l 205 444 l 205 0 l 56 0 "},"I":{"ha":261,"x_min":56,"x_max":205,"o":"m 56 0 l 56 1021 l 205 1021 l 205 0 l 56 0 "},"J":{"ha":287,"x_min":8,"x_max":239,"o":"m 8 -9 l 8 138 q 22 137 16 137 q 77 163 57 137 q 89 212 89 177 l 89 1021 l 239 1021 l 239 189 q 191 45 239 97 q 35 -10 139 -10 q 8 -9 22 -10 "},"K":{"ha":521,"x_min":56,"x_max":507,"o":"m 56 0 l 56 1021 l 205 1021 l 205 664 l 211 664 l 218 681 l 343 1021 l 489 1021 l 351 685 l 507 0 l 361 0 l 257 444 l 253 465 l 249 465 l 240 444 l 205 361 l 205 0 l 56 0 "},"L":{"ha":410,"x_min":56,"x_max":404,"o":"m 56 0 l 56 1021 l 205 1021 l 205 139 l 404 139 l 404 0 l 56 0 "},"M":{"ha":672,"x_min":56,"x_max":616,"o":"m 56 0 l 56 1021 l 239 1021 l 328 554 l 335 500 l 338 500 l 345 554 l 433 1021 l 616 1021 l 616 0 l 478 0 l 478 685 l 469 685 l 464 642 l 368 0 l 304 0 l 208 642 l 203 685 l 195 685 l 195 0 l 56 0 "},"N":{"ha":548,"x_min":56,"x_max":493,"o":"m 56 0 l 56 1021 l 189 1021 l 335 489 l 347 441 l 355 441 l 355 1021 l 493 1021 l 493 0 l 359 0 l 214 532 l 201 579 l 193 579 l 193 0 l 56 0 "},"O":{"ha":491,"x_min":46,"x_max":446,"o":"m 46 210 l 46 811 q 71 921 48 876 q 129 997 92 968 q 245 1032 176 1032 q 361 997 314 1032 q 421 921 401 966 q 446 811 444 876 l 446 210 q 421 98 444 144 q 361 24 402 55 q 245 -11 318 -11 q 129 24 172 -11 q 71 98 91 53 q 46 210 48 144 m 196 210 q 216 146 196 170 q 245 135 227 135 q 290 172 281 135 q 296 210 296 185 l 296 811 q 277 875 296 851 q 245 886 265 886 q 201 848 213 886 q 196 811 196 834 l 196 210 "},"P":{"ha":488,"x_min":56,"x_max":469,"o":"m 56 0 l 56 1021 l 205 1021 q 386 957 319 1021 q 469 715 469 878 q 386 475 469 553 q 205 408 315 408 l 205 0 l 56 0 m 205 561 q 297 593 274 561 q 318 710 318 621 q 297 832 318 801 q 205 868 273 868 l 205 561 "},"Q":{"ha":494,"x_min":46,"x_max":475,"o":"m 46 210 l 46 811 q 71 921 48 876 q 129 997 92 968 q 245 1032 176 1032 q 361 997 314 1032 q 421 921 401 966 q 446 811 444 876 l 446 210 q 433 131 446 175 q 415 86 431 124 q 475 50 435 58 l 475 -78 q 321 1 370 -78 q 245 -11 283 -11 q 129 24 172 -11 q 71 98 91 53 q 46 210 48 144 m 196 210 q 216 146 196 170 q 245 135 227 135 q 290 172 281 135 q 296 210 296 185 l 296 811 q 277 875 296 851 q 245 886 265 886 q 201 848 213 886 q 196 811 196 834 l 196 210 "},"R":{"ha":501,"x_min":56,"x_max":473,"o":"m 56 0 l 56 1021 l 205 1021 q 399 947 338 1021 q 461 726 461 873 q 440 584 461 646 q 378 494 419 522 l 473 0 l 323 0 l 245 431 l 205 431 l 205 0 l 56 0 m 205 570 q 277 591 252 570 q 317 721 317 627 q 277 851 317 816 q 205 872 253 872 l 205 570 "},"S":{"ha":476,"x_min":25,"x_max":452,"o":"m 25 286 l 172 300 q 184 182 172 218 q 243 126 200 126 q 304 239 304 126 q 265 351 304 281 q 227 412 247 381 q 132 553 182 475 q 58 711 81 632 q 46 793 46 751 q 90 954 46 890 q 241 1032 144 1030 q 247 1032 244 1032 q 414 942 366 1032 q 452 761 452 869 l 304 747 q 293 847 304 812 q 244 895 277 895 q 193 793 193 892 q 231 684 193 748 q 311 561 248 654 q 407 406 379 460 q 452 245 452 318 q 408 66 452 131 q 243 -11 356 -11 q 62 81 113 -11 q 25 286 25 149 "},"T":{"ha":439,"x_min":3,"x_max":436,"o":"m 3 867 l 3 1021 l 436 1021 l 436 867 l 294 867 l 294 0 l 144 0 l 144 867 l 3 867 "},"U":{"ha":508,"x_min":54,"x_max":454,"o":"m 54 210 l 54 1021 l 204 1021 l 204 210 q 225 146 204 170 q 254 135 236 135 q 298 172 289 135 q 304 210 304 186 l 304 1021 l 454 1021 l 454 210 q 429 98 452 145 q 370 24 410 54 q 254 -11 327 -11 q 138 24 180 -11 q 79 98 100 53 q 54 210 56 145 "},"V":{"ha":486,"x_min":12,"x_max":473,"o":"m 12 1021 l 158 1021 l 233 460 l 239 416 l 248 416 l 253 460 l 328 1021 l 473 1021 l 318 0 l 168 0 l 12 1021 "},"W":{"ha":703,"x_min":17,"x_max":686,"o":"m 17 1021 l 155 1021 l 215 490 l 218 457 l 229 457 l 233 490 l 297 1021 l 406 1021 l 469 490 l 473 457 l 485 457 l 488 490 l 547 1021 l 686 1021 l 549 0 l 432 0 l 363 484 l 354 543 l 349 543 l 340 484 l 271 0 l 154 0 l 17 1021 "},"X":{"ha":500,"x_min":11,"x_max":489,"o":"m 11 0 l 176 536 l 14 1021 l 161 1021 l 243 762 l 248 750 l 253 750 l 257 762 l 339 1021 l 486 1021 l 323 536 l 489 0 l 342 0 l 256 304 l 253 317 l 248 317 l 244 304 l 158 0 l 11 0 "},"Y":{"ha":475,"x_min":9,"x_max":465,"o":"m 9 1021 l 157 1021 l 232 694 l 236 685 l 239 685 l 243 694 l 318 1021 l 465 1021 l 313 435 l 313 0 l 163 0 l 163 435 l 9 1021 "},"Z":{"ha":425,"x_min":14,"x_max":411,"o":"m 14 0 l 14 161 l 249 872 l 47 872 l 47 1021 l 411 1021 l 411 872 l 172 149 l 411 149 l 411 0 l 14 0 "},"[":{"ha":365,"x_min":56,"x_max":326,"o":"m 56 -144 l 56 1021 l 326 1021 l 326 888 l 189 888 l 189 -11 l 326 -11 l 326 -144 l 56 -144 "},"\\":{"ha":537,"x_min":5,"x_max":532,"o":"m 5 1147 l 115 1147 l 532 -122 l 418 -122 l 5 1147 "},"]":{"ha":365,"x_min":39,"x_max":310,"o":"m 39 -11 l 176 -11 l 176 888 l 39 888 l 39 1021 l 310 1021 l 310 -144 l 39 -144 l 39 -11 "},"^":{"ha":747,"x_min":36,"x_max":711,"o":"m 36 549 l 294 1021 l 453 1021 l 711 549 l 576 549 l 374 917 l 171 549 l 36 549 "},"_":{"ha":821,"x_min":50,"x_max":771,"o":"m 50 -104 l 771 -104 l 771 -221 l 50 -221 l 50 -104 "},"`":{"ha":694,"x_min":199,"x_max":416,"o":"m 199 1010 l 345 1010 l 416 885 l 309 885 l 199 1010 "},"a":{"ha":448,"x_min":33,"x_max":418,"o":"m 33 176 q 92 364 33 292 q 201 450 131 413 q 215 458 206 453 q 229 465 224 463 q 240 471 233 467 q 251 477 247 475 q 258 483 254 479 q 264 489 262 486 q 268 496 267 492 l 268 579 q 264 625 268 612 q 229 648 254 648 q 192 608 199 648 q 189 572 189 587 l 189 536 l 49 536 l 49 568 q 103 711 49 650 q 237 771 156 771 q 357 722 306 771 q 408 599 408 673 l 408 132 q 418 0 408 58 l 281 0 q 268 61 268 16 l 258 61 q 220 16 243 35 q 146 -11 186 -11 q 77 24 104 -11 q 33 176 33 72 m 171 197 q 178 155 171 175 q 210 126 187 126 q 251 139 234 126 q 268 172 268 153 l 268 367 q 195 300 219 346 q 171 197 171 254 "},"b":{"ha":465,"x_min":56,"x_max":415,"o":"m 56 0 l 56 1021 l 196 1021 l 196 710 q 268 761 234 746 q 307 771 286 771 q 390 721 357 771 q 415 623 415 677 l 415 138 q 390 40 415 81 q 307 -11 358 -11 q 232 20 273 -11 q 196 50 219 30 l 196 0 l 56 0 m 196 167 q 209 134 196 147 q 237 121 221 121 q 264 134 253 121 q 275 167 275 147 l 275 593 q 264 626 275 612 q 237 639 253 639 q 209 624 222 639 q 196 593 196 610 l 196 167 "},"c":{"ha":437,"x_min":45,"x_max":404,"o":"m 45 214 l 45 546 q 96 722 45 667 q 224 771 140 771 q 358 725 316 771 q 404 553 404 675 l 404 493 l 264 493 l 264 585 q 256 633 264 620 q 224 646 248 646 q 197 635 206 646 q 186 613 188 625 q 184 585 184 602 l 184 175 q 186 146 184 157 q 197 124 188 135 q 224 114 206 114 q 256 127 248 114 q 264 175 264 140 l 264 281 l 404 281 l 404 207 q 358 35 404 85 q 224 -11 316 -11 q 96 37 140 -11 q 45 214 45 92 "},"d":{"ha":465,"x_min":50,"x_max":410,"o":"m 50 138 l 50 623 q 77 721 50 679 q 158 771 107 771 q 233 741 192 771 q 269 710 246 730 l 269 1021 l 410 1021 l 410 0 l 269 0 l 269 50 q 199 -1 230 13 q 158 -11 180 -11 q 77 40 106 -11 q 50 138 50 80 m 191 167 q 201 134 191 147 q 228 121 212 121 q 257 134 244 121 q 269 167 269 147 l 269 593 q 256 624 269 610 q 228 639 243 639 q 201 626 212 639 q 191 593 191 612 l 191 167 "},"e":{"ha":447,"x_min":45,"x_max":407,"o":"m 45 189 l 45 571 q 122 741 51 682 q 227 771 157 771 q 385 672 339 771 q 407 575 405 623 l 407 354 l 175 354 l 175 189 q 197 123 177 150 q 227 113 208 113 q 271 150 261 113 q 277 189 277 166 l 277 272 l 407 272 l 407 184 q 386 89 404 128 q 330 20 368 50 q 225 -11 294 -11 q 66 89 111 -11 q 45 189 47 136 m 175 464 l 277 464 l 277 571 q 257 637 277 613 q 227 648 246 648 q 182 610 194 648 q 175 571 177 597 l 175 464 "},"f":{"ha":322,"x_min":14,"x_max":311,"o":"m 14 633 l 14 760 l 85 760 l 85 781 q 106 933 85 878 q 245 1026 141 1026 q 294 1021 280 1026 l 311 1017 l 311 896 q 305 897 309 897 q 298 899 300 898 q 269 901 279 901 q 229 854 239 901 q 225 812 225 834 l 225 779 l 225 760 l 296 760 l 296 633 l 225 633 l 225 0 l 85 0 l 85 633 l 14 633 "},"g":{"ha":475,"x_min":8,"x_max":473,"o":"m 8 -125 q 43 -57 8 -90 q 118 -9 70 -32 q 33 92 33 13 q 62 157 33 121 q 121 205 88 189 q 52 309 71 239 q 40 371 41 347 l 40 578 q 117 741 48 684 q 218 771 151 771 q 358 701 309 771 q 407 743 385 728 q 473 771 444 771 l 473 646 q 392 629 421 646 q 396 611 395 614 q 397 596 396 600 q 399 582 399 592 l 399 367 q 321 208 393 263 q 218 179 283 179 l 205 179 q 192 180 196 179 q 172 146 172 163 q 207 114 172 123 q 279 98 233 105 q 410 56 361 88 q 473 -78 473 10 q 397 -231 473 -181 q 233 -272 332 -272 q 71 -239 124 -270 q 8 -125 8 -204 m 144 -102 q 167 -140 144 -125 q 236 -154 190 -154 q 307 -142 276 -154 q 343 -103 343 -127 q 332 -71 343 -82 q 268 -49 315 -56 l 196 -35 q 144 -102 144 -64 m 178 364 q 178 357 178 360 q 193 307 178 325 q 218 296 203 296 q 257 329 246 296 q 261 364 261 343 l 261 572 q 244 631 261 606 q 218 642 235 642 q 180 607 189 642 q 177 583 177 595 q 178 572 177 578 l 178 364 "},"h":{"ha":468,"x_min":56,"x_max":415,"o":"m 56 0 l 56 1021 l 196 1021 l 196 696 q 212 711 197 696 q 273 761 248 747 q 310 771 292 771 q 390 721 359 771 q 415 623 415 677 l 415 0 l 275 0 l 275 602 q 241 635 275 635 q 208 616 227 635 q 196 599 200 606 l 196 0 l 56 0 "},"i":{"ha":251,"x_min":56,"x_max":196,"o":"m 56 0 l 56 760 l 196 760 l 196 0 l 56 0 m 56 880 l 56 1021 l 196 1021 l 196 880 l 56 880 "},"j":{"ha":247,"x_min":-31,"x_max":192,"o":"m -31 -123 q -24 -125 -28 -124 q -18 -126 -20 -125 q 8 -129 1 -129 q 49 -86 39 -129 q 52 -50 52 -64 l 52 -18 l 52 760 l 192 760 l 192 -20 q 172 -170 192 -119 q 31 -261 137 -261 q -17 -257 -3 -261 q -31 -253 -22 -256 l -31 -123 m 52 880 l 52 1021 l 192 1021 l 192 880 l 52 880 "},"k":{"ha":435,"x_min":56,"x_max":432,"o":"m 56 0 l 56 1021 l 196 1021 l 196 536 l 203 536 l 211 561 l 279 760 l 406 760 l 304 513 l 432 0 l 297 0 l 228 307 l 225 318 l 218 318 l 214 307 l 196 262 l 196 0 l 56 0 "},"l":{"ha":251,"x_min":56,"x_max":196,"o":"m 56 0 l 56 1021 l 196 1021 l 196 0 l 56 0 "},"m":{"ha":692,"x_min":56,"x_max":640,"o":"m 56 0 l 56 760 l 196 760 l 196 696 q 212 711 197 696 q 277 761 244 743 q 313 771 295 771 q 407 686 377 771 q 429 707 415 692 q 497 760 456 735 q 534 771 518 771 q 615 721 585 771 q 640 623 640 677 l 640 0 l 509 0 l 509 602 q 471 635 509 635 q 433 616 452 635 q 418 599 420 604 l 418 0 l 286 0 l 286 602 q 249 635 286 635 q 211 616 229 635 q 196 599 200 606 l 196 0 l 56 0 "},"n":{"ha":468,"x_min":56,"x_max":415,"o":"m 56 0 l 56 760 l 196 760 l 196 696 q 212 711 197 696 q 273 761 248 747 q 310 771 292 771 q 390 721 359 771 q 415 623 415 677 l 415 0 l 275 0 l 275 602 q 241 635 275 635 q 208 616 227 635 q 196 599 200 606 l 196 0 l 56 0 "},"o":{"ha":446,"x_min":43,"x_max":403,"o":"m 43 189 l 43 571 q 118 741 49 682 q 222 771 153 771 q 380 672 335 771 q 403 575 401 623 l 403 184 q 382 89 399 129 q 328 20 364 50 q 222 -11 291 -11 q 65 89 110 -11 q 43 189 45 138 m 175 189 q 175 182 175 186 q 193 123 175 147 q 222 113 204 113 q 267 150 257 113 q 271 178 271 162 q 271 189 271 184 l 271 571 q 271 578 271 574 q 253 637 271 615 q 222 648 242 648 q 179 610 189 648 q 174 582 174 597 q 175 571 174 576 l 175 189 "},"p":{"ha":465,"x_min":56,"x_max":415,"o":"m 56 -261 l 56 760 l 196 760 l 196 710 q 268 761 234 746 q 307 771 286 771 q 390 721 357 771 q 415 623 415 677 l 415 138 q 390 40 415 81 q 307 -11 358 -11 q 232 20 273 -11 q 196 50 219 30 l 196 -261 l 56 -261 m 196 167 q 209 135 196 150 q 237 121 222 121 q 264 134 253 121 q 275 167 275 147 l 275 593 q 264 626 275 612 q 237 639 253 639 q 209 626 221 639 q 196 593 196 612 l 196 167 "},"q":{"ha":465,"x_min":50,"x_max":410,"o":"m 50 138 l 50 623 q 77 721 50 679 q 158 771 107 771 q 233 741 192 771 q 269 710 246 730 l 269 760 l 410 760 l 410 -261 l 269 -261 l 269 50 q 199 -1 230 13 q 158 -11 180 -11 q 77 40 106 -11 q 50 138 50 80 m 191 167 q 201 134 191 147 q 228 121 212 121 q 256 135 243 121 q 269 167 269 150 l 269 593 q 257 626 269 612 q 228 639 244 639 q 201 626 212 639 q 191 593 191 612 l 191 167 "},"r":{"ha":341,"x_min":56,"x_max":336,"o":"m 56 0 l 56 760 l 196 760 l 196 675 q 206 700 197 684 q 229 730 214 715 q 336 771 273 771 l 336 615 q 297 621 320 621 q 227 597 251 621 q 196 528 196 572 l 196 0 l 56 0 "},"s":{"ha":427,"x_min":25,"x_max":400,"o":"m 25 221 l 155 221 q 167 149 155 176 q 221 106 184 106 q 269 197 269 106 q 255 244 269 219 q 225 287 240 270 q 182 332 210 303 q 92 431 115 395 q 49 566 49 494 q 83 701 49 649 q 220 771 130 769 q 226 771 223 771 q 371 701 330 771 q 399 566 399 654 l 268 566 q 262 624 268 606 q 222 654 250 654 q 187 624 197 654 q 179 566 179 604 q 210 494 179 532 q 271 429 230 467 q 358 329 336 364 q 400 197 400 260 q 361 58 400 113 q 221 -11 311 -11 q 58 75 109 -11 q 25 221 25 132 "},"t":{"ha":340,"x_min":14,"x_max":321,"o":"m 14 633 l 14 760 l 85 760 l 85 947 l 225 947 l 225 760 l 321 760 l 321 633 l 225 633 l 225 256 q 231 176 225 201 q 269 131 240 131 q 304 134 286 131 q 313 135 307 134 q 321 136 318 136 l 321 -1 q 310 -4 317 -2 q 300 -7 303 -6 q 245 -11 279 -11 q 106 83 141 -11 q 85 244 85 140 l 85 633 l 14 633 "},"u":{"ha":468,"x_min":53,"x_max":412,"o":"m 53 138 l 53 760 l 193 760 l 193 158 q 202 132 193 138 q 227 125 211 125 q 260 143 241 125 q 272 161 263 146 l 272 760 l 412 760 l 412 0 l 272 0 l 272 64 q 257 50 269 62 q 196 0 220 13 q 158 -11 176 -11 q 78 40 108 -11 q 53 138 53 81 "},"v":{"ha":408,"x_min":11,"x_max":397,"o":"m 11 760 l 147 760 l 193 319 l 199 271 l 210 271 l 215 319 l 261 760 l 397 760 l 273 0 l 135 0 l 11 760 "},"w":{"ha":614,"x_min":14,"x_max":600,"o":"m 14 760 l 142 760 l 186 363 l 192 319 l 200 319 l 207 363 l 265 760 l 349 760 l 407 363 l 414 319 l 422 319 l 428 363 l 472 760 l 600 760 l 488 0 l 371 0 l 317 363 l 310 406 l 304 406 l 297 363 l 243 0 l 126 0 l 14 760 "},"x":{"ha":419,"x_min":11,"x_max":408,"o":"m 11 0 l 142 392 l 22 760 l 154 760 l 204 582 l 208 561 l 211 561 l 215 582 l 265 760 l 397 760 l 278 392 l 408 0 l 272 0 l 215 192 l 211 212 l 208 212 l 204 192 l 147 0 l 11 0 "},"y":{"ha":430,"x_min":17,"x_max":414,"o":"m 17 760 l 154 760 l 210 293 l 212 254 l 218 254 l 221 293 l 277 760 l 414 760 l 279 -57 q 218 -204 269 -144 q 85 -272 162 -272 l 68 -272 q 22 -269 56 -272 l 22 -144 q 31 -146 24 -146 q 57 -146 33 -149 q 94 -134 80 -144 q 140 -64 128 -108 q 146 -22 146 -45 l 17 760 "},"z":{"ha":361,"x_min":8,"x_max":350,"o":"m 8 0 l 8 114 l 201 632 l 39 632 l 39 760 l 350 760 l 350 646 l 157 127 l 350 127 l 350 0 l 8 0 "},"{":{"ha":467,"x_min":41,"x_max":428,"o":"m 41 307 l 41 418 q 114 458 92 418 q 131 513 131 488 l 131 782 q 147 909 131 861 q 199 986 163 958 q 288 1023 233 1013 q 428 1032 343 1034 l 428 916 q 349 910 379 916 q 301 890 319 905 q 264 782 264 861 l 264 513 q 242 425 264 460 q 178 363 220 389 q 242 300 220 336 q 264 212 264 264 l 264 -57 q 301 -165 264 -136 q 349 -185 319 -180 q 428 -191 379 -191 l 428 -307 q 288 -298 343 -309 q 199 -261 233 -288 q 147 -184 163 -233 q 131 -57 131 -136 l 131 212 q 114 265 131 234 q 41 307 91 305 "},"|":{"ha":241,"x_min":56,"x_max":186,"o":"m 56 -347 l 56 1147 l 186 1147 l 186 -347 l 56 -347 "},"}":{"ha":467,"x_min":39,"x_max":425,"o":"m 39 -191 q 117 -185 87 -191 q 165 -165 147 -180 q 203 -57 203 -136 l 203 212 q 224 300 203 264 q 289 363 246 336 q 224 425 246 389 q 203 513 203 460 l 203 782 q 165 890 203 861 q 117 910 147 905 q 39 916 87 916 l 39 1032 q 180 1023 124 1034 q 269 986 235 1013 q 320 909 304 958 q 336 782 336 861 l 336 513 q 353 458 336 486 q 425 418 375 418 l 425 307 q 353 265 376 305 q 336 212 336 235 l 336 -57 q 320 -184 336 -136 q 269 -261 304 -233 q 180 -298 235 -288 q 39 -307 124 -309 l 39 -191 "},"~":{"ha":868,"x_min":77,"x_max":831,"o":"m 77 917 q 200 1093 113 1025 q 304 1125 244 1125 q 334 1123 319 1125 q 361 1119 349 1121 q 387 1112 372 1117 q 409 1103 401 1106 q 431 1092 416 1100 q 451 1080 446 1084 q 472 1067 456 1077 q 492 1055 488 1058 q 610 1007 559 1007 q 707 1068 667 1007 q 739 1131 726 1097 l 831 1092 q 708 914 789 978 q 610 882 665 882 q 537 893 573 882 q 481 916 501 905 q 425 950 462 927 q 304 1000 352 1000 q 200 939 243 1000 q 168 878 178 905 l 77 917 "},"":{"ha":423,"x_min":36,"x_max":387,"o":"m 36 686 l 36 840 l 113 1021 l 182 1021 l 134 840 l 182 840 l 182 686 l 36 686 m 241 686 l 241 840 l 318 1021 l 387 1021 l 339 840 l 387 840 l 387 686 l 241 686 "},"":{"ha":423,"x_min":36,"x_max":387,"o":"m 36 686 l 85 867 l 36 867 l 36 1021 l 182 1021 l 182 867 l 106 686 l 36 686 m 241 686 l 290 867 l 241 867 l 241 1021 l 387 1021 l 387 867 l 311 686 l 241 686 "}," ":{"ha":214,"x_min":0,"x_max":0,"o":""},"¡":{"ha":262,"x_min":50,"x_max":212,"o":"m 50 -261 l 87 485 l 175 485 l 212 -261 l 50 -261 m 58 606 l 58 760 l 204 760 l 204 606 l 58 606 "},"¢":{"ha":431,"x_min":45,"x_max":399,"o":"m 45 345 l 45 676 q 186 899 45 878 l 186 1063 l 269 1063 l 269 897 q 367 839 334 887 q 399 684 399 789 l 399 624 l 271 624 l 271 715 q 258 763 271 749 q 221 777 246 777 q 184 758 195 777 q 172 715 172 740 l 172 306 q 184 262 172 281 q 221 244 195 244 q 258 258 246 244 q 271 306 271 273 l 271 411 l 399 411 l 399 338 q 367 182 399 233 q 269 122 335 132 l 269 -83 l 186 -83 l 186 121 q 45 345 45 141 "},"£":{"ha":554,"x_min":3,"x_max":534,"o":"m 3 43 q 83 157 34 111 q 146 187 113 182 q 171 322 171 256 q 150 440 171 367 l 22 440 l 22 533 l 122 533 l 118 547 q 65 779 65 722 q 109 949 65 882 q 265 1032 162 1030 q 446 949 389 1034 q 490 760 490 880 l 346 760 q 330 852 346 817 q 268 893 313 893 q 221 856 237 893 q 207 779 207 827 q 215 702 207 745 q 230 631 222 659 q 254 550 238 603 l 258 533 l 401 533 l 401 440 l 283 440 q 300 322 300 371 q 261 174 300 253 q 309 149 283 164 q 351 134 325 136 q 387 164 372 136 q 407 262 405 194 l 534 248 q 480 56 526 123 q 364 -11 433 -11 q 267 24 332 -11 q 253 31 263 26 q 240 38 243 36 q 228 44 236 40 q 214 50 219 48 q 203 54 210 52 q 190 57 196 56 q 179 58 184 58 q 121 24 146 58 q 102 -11 109 9 l 3 43 "},"¥":{"ha":488,"x_min":17,"x_max":472,"o":"m 17 1021 l 164 1021 l 239 694 l 243 685 l 245 685 l 250 694 l 325 1021 l 472 1021 l 339 510 l 439 510 l 439 416 l 319 416 l 319 323 l 439 323 l 439 231 l 319 231 l 319 0 l 170 0 l 170 231 l 50 231 l 50 323 l 170 323 l 170 416 l 50 416 l 50 510 l 150 510 l 17 1021 "},"¨":{"ha":694,"x_min":184,"x_max":510,"o":"m 184 885 l 184 1021 l 314 1021 l 314 885 l 184 885 m 380 885 l 380 1021 l 510 1021 l 510 885 l 380 885 "},"©":{"ha":1115,"x_min":36,"x_max":1079,"o":"m 36 510 q 76 711 36 616 q 189 879 117 806 q 356 991 261 951 q 557 1032 452 1032 q 759 991 663 1032 q 926 879 854 951 q 1039 712 998 807 q 1079 510 1079 616 q 1039 309 1079 404 q 926 142 998 214 q 759 30 854 70 q 557 -11 663 -11 q 356 30 451 -11 q 189 142 261 70 q 77 309 117 214 q 36 510 36 405 m 151 341 q 248 200 186 262 q 389 104 309 138 q 557 69 468 69 q 727 104 646 69 q 869 200 808 138 q 965 341 931 262 q 999 510 999 421 q 965 680 999 600 q 869 822 931 760 q 727 918 808 884 q 557 951 646 951 q 389 918 468 951 q 248 822 309 884 q 151 680 186 760 q 117 510 117 599 q 134 381 117 421 q 151 341 151 341 m 425 330 l 425 690 q 479 803 425 760 q 555 823 507 823 q 667 757 633 823 q 684 690 682 726 l 684 606 l 590 606 l 590 690 q 578 726 592 712 q 557 733 571 733 q 528 711 536 733 q 524 690 524 701 l 524 330 q 538 294 524 307 q 557 288 545 288 q 587 309 579 288 q 590 330 592 319 l 590 415 l 684 415 l 684 330 q 629 218 677 259 q 555 197 603 197 q 440 264 474 197 q 425 330 425 295 "},"­":{"ha":301,"x_min":50,"x_max":252,"o":"m 50 309 l 50 440 l 252 440 l 252 309 l 50 309 "},"®":{"ha":1115,"x_min":36,"x_max":1079,"o":"m 36 510 q 76 711 36 616 q 189 879 117 806 q 356 991 261 951 q 557 1032 452 1032 q 759 991 663 1032 q 926 879 854 951 q 1039 712 998 807 q 1079 510 1079 616 q 1039 309 1079 404 q 926 142 998 214 q 759 30 854 70 q 557 -11 663 -11 q 356 30 451 -11 q 189 142 261 70 q 77 309 117 214 q 36 510 36 405 m 151 341 q 248 200 186 262 q 389 104 309 138 q 557 69 468 69 q 727 104 646 69 q 869 200 808 138 q 965 341 931 262 q 999 510 999 421 q 965 680 999 600 q 869 822 931 760 q 727 918 808 884 q 557 951 646 951 q 389 918 468 951 q 248 822 309 884 q 151 680 186 760 q 117 510 117 599 q 134 381 117 421 q 151 341 151 341 m 424 212 l 424 808 l 557 808 q 714 633 714 808 q 703 548 714 581 q 654 484 692 515 l 726 212 l 624 212 l 559 460 l 522 460 l 522 212 l 424 212 m 522 546 l 553 546 q 610 574 596 546 q 619 632 619 593 q 610 692 619 672 q 553 721 595 721 l 522 721 l 522 546 "},"¯":{"ha":694,"x_min":212,"x_max":482,"o":"m 212 892 l 212 1002 l 482 1002 l 482 892 l 212 892 "},"´":{"ha":694,"x_min":278,"x_max":496,"o":"m 278 885 l 350 1010 l 496 1010 l 386 885 l 278 885 "},"·":{"ha":146,"x_min":0,"x_max":146,"o":"m 0 440 l 0 595 l 146 595 l 146 440 l 0 440 "},"¸":{"ha":694,"x_min":289,"x_max":406,"o":"m 289 -75 l 406 -75 l 406 -171 l 375 -261 l 304 -261 l 332 -171 l 289 -171 l 289 -75 "},"¿":{"ha":437,"x_min":28,"x_max":421,"o":"m 28 -72 q 37 -17 28 -45 q 54 27 45 11 q 82 77 62 43 q 94 96 84 80 q 110 122 104 112 q 157 239 141 173 q 165 311 165 275 l 165 485 l 294 485 l 294 311 q 264 127 294 218 q 201 4 245 75 q 165 -72 172 -44 q 172 -110 163 -91 q 211 -136 183 -136 q 271 -97 243 -136 q 300 -37 292 -68 l 421 -94 q 357 -197 396 -153 q 208 -267 293 -269 q 60 -187 106 -264 q 28 -72 28 -135 m 157 606 l 157 760 l 302 760 l 302 606 l 157 606 "},"À":{"ha":519,"x_min":14,"x_max":505,"o":"m 14 0 l 168 1021 l 351 1021 l 505 0 l 359 0 l 332 208 l 187 208 l 160 0 l 14 0 m 96 1236 l 241 1236 l 314 1111 l 205 1111 l 96 1236 m 208 367 l 311 367 l 268 689 l 264 715 l 256 715 l 252 689 l 208 367 "},"Á":{"ha":519,"x_min":14,"x_max":505,"o":"m 14 0 l 168 1021 l 351 1021 l 505 0 l 359 0 l 332 208 l 187 208 l 160 0 l 14 0 m 199 1111 l 271 1236 l 416 1236 l 307 1111 l 199 1111 m 208 367 l 311 367 l 268 689 l 264 715 l 256 715 l 252 689 l 208 367 "},"Â":{"ha":519,"x_min":14,"x_max":505,"o":"m 14 0 l 168 1021 l 351 1021 l 505 0 l 359 0 l 332 208 l 187 208 l 160 0 l 14 0 m 90 1111 l 186 1236 l 335 1236 l 431 1111 l 302 1111 l 260 1160 l 218 1111 l 90 1111 m 208 367 l 311 367 l 268 689 l 264 715 l 256 715 l 252 689 l 208 367 "},"Ã":{"ha":519,"x_min":14,"x_max":505,"o":"m 14 0 l 168 1021 l 351 1021 l 505 0 l 359 0 l 332 208 l 187 208 l 160 0 l 14 0 m 125 1107 l 125 1210 q 171 1232 142 1223 q 199 1236 183 1236 q 260 1225 227 1236 q 321 1210 291 1212 q 372 1221 341 1210 q 395 1232 391 1230 l 395 1129 q 349 1107 377 1114 q 321 1103 336 1103 q 261 1116 290 1103 q 199 1129 233 1127 q 147 1118 178 1129 q 125 1107 128 1109 m 208 367 l 311 367 l 268 689 l 264 715 l 256 715 l 252 689 l 208 367 "},"Ä":{"ha":519,"x_min":14,"x_max":505,"o":"m 14 0 l 168 1021 l 351 1021 l 505 0 l 359 0 l 332 208 l 187 208 l 160 0 l 14 0 m 97 1111 l 97 1247 l 227 1247 l 227 1111 l 97 1111 m 208 367 l 311 367 l 268 689 l 264 715 l 256 715 l 252 689 l 208 367 m 293 1111 l 293 1247 l 422 1247 l 422 1111 l 293 1111 "},"Å":{"ha":519,"x_min":14,"x_max":505,"o":"m 14 0 l 168 1021 l 351 1021 l 505 0 l 359 0 l 332 208 l 187 208 l 160 0 l 14 0 m 187 1264 q 261 1292 218 1292 q 334 1264 304 1292 q 364 1194 364 1236 q 334 1125 364 1152 q 261 1097 304 1097 q 187 1125 218 1097 q 157 1194 157 1152 q 172 1250 157 1236 q 187 1264 187 1264 m 208 367 l 311 367 l 268 689 l 264 715 l 256 715 l 252 689 l 208 367 m 225 1160 q 261 1146 241 1146 q 297 1160 281 1146 q 313 1194 313 1175 q 297 1229 313 1214 q 261 1243 281 1243 q 225 1229 241 1243 q 210 1194 210 1214 q 217 1167 210 1175 q 225 1160 225 1160 "},"Æ":{"ha":745,"x_min":11,"x_max":718,"o":"m 11 0 l 296 1021 l 718 1021 l 718 867 l 525 867 l 525 599 l 664 599 l 664 435 l 525 435 l 525 154 l 718 154 l 718 0 l 375 0 l 375 208 l 221 208 l 160 0 l 11 0 m 267 367 l 375 367 l 375 715 l 368 715 l 267 367 "},"Ç":{"ha":480,"x_min":46,"x_max":446,"o":"m 46 210 l 46 811 q 71 921 48 876 q 129 997 92 968 q 245 1032 176 1032 q 361 997 314 1032 q 421 921 401 966 q 446 811 444 876 l 446 671 l 306 671 l 306 811 q 283 875 306 850 q 249 886 272 886 q 203 848 217 886 q 196 811 199 838 l 196 210 q 220 146 198 171 q 249 135 231 135 q 300 172 288 135 q 306 210 306 186 l 306 350 l 446 350 l 446 210 q 421 98 444 144 q 361 24 402 55 q 245 -11 318 -11 q 129 24 172 -11 q 71 98 91 53 q 46 210 48 144 m 182 -75 l 298 -75 l 298 -171 l 268 -261 l 197 -261 l 225 -171 l 182 -171 l 182 -75 "},"È":{"ha":426,"x_min":56,"x_max":399,"o":"m 56 0 l 56 1021 l 399 1021 l 399 867 l 205 867 l 205 599 l 345 599 l 345 435 l 205 435 l 205 154 l 399 154 l 399 0 l 56 0 m 75 1236 l 221 1236 l 293 1111 l 184 1111 l 75 1236 "},"É":{"ha":426,"x_min":56,"x_max":399,"o":"m 56 0 l 56 1021 l 399 1021 l 399 867 l 205 867 l 205 599 l 345 599 l 345 435 l 205 435 l 205 154 l 399 154 l 399 0 l 56 0 m 160 1111 l 232 1236 l 378 1236 l 268 1111 l 160 1111 "},"Ê":{"ha":426,"x_min":56,"x_max":399,"o":"m 56 0 l 56 1021 l 399 1021 l 399 867 l 205 867 l 205 599 l 345 599 l 345 435 l 205 435 l 205 154 l 399 154 l 399 0 l 56 0 m 57 1111 l 153 1236 l 301 1236 l 397 1111 l 269 1111 l 227 1160 l 184 1111 l 57 1111 "},"Ë":{"ha":426,"x_min":56,"x_max":399,"o":"m 56 0 l 56 1021 l 399 1021 l 399 867 l 205 867 l 205 599 l 345 599 l 345 435 l 205 435 l 205 154 l 399 154 l 399 0 l 56 0 m 64 1111 l 64 1247 l 193 1247 l 193 1111 l 64 1111 m 260 1111 l 260 1247 l 389 1247 l 389 1111 l 260 1111 "},"Ì":{"ha":272,"x_min":-4,"x_max":216,"o":"m -4 1236 l 142 1236 l 214 1111 l 106 1111 l -4 1236 m 66 0 l 66 1021 l 216 1021 l 216 0 l 66 0 "},"Í":{"ha":272,"x_min":56,"x_max":277,"o":"m 56 0 l 56 1021 l 205 1021 l 205 0 l 56 0 m 58 1111 l 131 1236 l 277 1236 l 167 1111 l 58 1111 "},"Î":{"ha":251,"x_min":-45,"x_max":296,"o":"m -45 1111 l 52 1236 l 200 1236 l 296 1111 l 168 1111 l 125 1160 l 83 1111 l -45 1111 m 50 0 l 50 1021 l 200 1021 l 200 0 l 50 0 "},"Ï":{"ha":252,"x_min":-36,"x_max":289,"o":"m -36 1111 l -36 1247 l 93 1247 l 93 1111 l -36 1111 m 52 0 l 52 1021 l 201 1021 l 201 0 l 52 0 m 160 1111 l 160 1247 l 289 1247 l 289 1111 l 160 1111 "},"Ð":{"ha":516,"x_min":14,"x_max":472,"o":"m 14 444 l 14 599 l 56 599 l 56 1021 l 174 1021 q 339 997 280 1021 q 428 916 398 973 q 464 769 455 861 q 472 510 472 677 q 464 252 472 343 q 428 106 455 160 q 339 24 398 48 q 174 0 279 0 l 56 0 l 56 444 l 14 444 m 205 150 q 269 160 248 150 q 301 205 290 170 q 315 314 313 249 q 317 511 317 363 q 315 708 317 659 q 301 817 313 770 q 269 861 290 850 q 205 871 248 871 l 205 599 l 262 599 l 262 444 l 205 444 l 205 150 "},"Ñ":{"ha":548,"x_min":56,"x_max":493,"o":"m 56 0 l 56 1021 l 189 1021 l 335 489 l 347 441 l 355 441 l 355 1021 l 493 1021 l 493 0 l 359 0 l 214 532 l 201 579 l 193 579 l 193 0 l 56 0 m 140 1107 l 140 1210 q 186 1232 157 1223 q 214 1236 198 1236 q 275 1225 242 1236 q 336 1210 307 1212 q 387 1221 356 1210 q 410 1232 406 1230 l 410 1129 q 364 1107 392 1114 q 336 1103 352 1103 q 277 1116 306 1103 q 214 1129 249 1127 q 163 1118 194 1129 q 140 1107 144 1109 "},"Ò":{"ha":491,"x_min":46,"x_max":446,"o":"m 46 210 l 46 811 q 71 921 48 876 q 129 997 92 968 q 245 1032 176 1032 q 361 997 314 1032 q 421 921 401 966 q 446 811 444 876 l 446 210 q 421 98 444 144 q 361 24 402 55 q 245 -11 318 -11 q 129 24 172 -11 q 71 98 91 53 q 46 210 48 144 m 82 1236 l 228 1236 l 300 1111 l 192 1111 l 82 1236 m 196 210 q 216 146 196 170 q 245 135 227 135 q 290 172 281 135 q 296 210 296 185 l 296 811 q 277 875 296 851 q 245 886 265 886 q 201 848 213 886 q 196 811 196 834 l 196 210 "},"Ó":{"ha":491,"x_min":46,"x_max":446,"o":"m 46 210 l 46 811 q 71 921 48 876 q 129 997 92 968 q 245 1032 176 1032 q 361 997 314 1032 q 421 921 401 966 q 446 811 444 876 l 446 210 q 421 98 444 144 q 361 24 402 55 q 245 -11 318 -11 q 129 24 172 -11 q 71 98 91 53 q 46 210 48 144 m 193 1111 l 265 1236 l 411 1236 l 301 1111 l 193 1111 m 196 210 q 216 146 196 170 q 245 135 227 135 q 290 172 281 135 q 296 210 296 185 l 296 811 q 277 875 296 851 q 245 886 265 886 q 201 848 213 886 q 196 811 196 834 l 196 210 "},"Ô":{"ha":491,"x_min":46,"x_max":446,"o":"m 46 210 l 46 811 q 71 921 48 876 q 129 997 92 968 q 245 1032 176 1032 q 361 997 314 1032 q 421 921 401 966 q 446 811 444 876 l 446 210 q 421 98 444 144 q 361 24 402 55 q 245 -11 318 -11 q 129 24 172 -11 q 71 98 91 53 q 46 210 48 144 m 77 1111 l 172 1236 l 321 1236 l 416 1111 l 289 1111 l 245 1160 l 204 1111 l 77 1111 m 196 210 q 216 146 196 170 q 245 135 227 135 q 290 172 281 135 q 296 210 296 185 l 296 811 q 277 875 296 851 q 245 886 265 886 q 201 848 213 886 q 196 811 196 834 l 196 210 "},"Õ":{"ha":491,"x_min":46,"x_max":446,"o":"m 46 210 l 46 811 q 71 921 48 876 q 129 997 92 968 q 245 1032 176 1032 q 361 997 314 1032 q 421 921 401 966 q 446 811 444 876 l 446 210 q 421 98 444 144 q 361 24 402 55 q 245 -11 318 -11 q 129 24 172 -11 q 71 98 91 53 q 46 210 48 144 m 111 1107 l 111 1210 q 157 1232 128 1223 q 184 1236 169 1236 q 245 1225 212 1236 q 307 1210 277 1212 q 358 1221 327 1210 q 380 1232 377 1230 l 380 1129 q 335 1107 363 1114 q 307 1103 323 1103 q 248 1116 277 1103 q 184 1129 220 1127 q 134 1118 165 1129 q 111 1107 115 1109 m 196 210 q 216 146 196 170 q 245 135 227 135 q 290 172 281 135 q 296 210 296 185 l 296 811 q 277 875 296 851 q 245 886 265 886 q 201 848 213 886 q 196 811 196 834 l 196 210 "},"Ö":{"ha":491,"x_min":46,"x_max":446,"o":"m 46 210 l 46 811 q 71 921 48 876 q 129 997 92 968 q 245 1032 176 1032 q 361 997 314 1032 q 421 921 401 966 q 446 811 444 876 l 446 210 q 421 98 444 144 q 361 24 402 55 q 245 -11 318 -11 q 129 24 172 -11 q 71 98 91 53 q 46 210 48 144 m 83 1111 l 83 1247 l 212 1247 l 212 1111 l 83 1111 m 196 210 q 216 146 196 170 q 245 135 227 135 q 290 172 281 135 q 296 210 296 185 l 296 811 q 277 875 296 851 q 245 886 265 886 q 201 848 213 886 q 196 811 196 834 l 196 210 m 279 1111 l 279 1247 l 408 1247 l 408 1111 l 279 1111 "},"Ø":{"ha":491,"x_min":40,"x_max":446,"o":"m 40 -14 l 72 93 q 49 172 59 116 q 46 210 46 197 l 46 811 q 71 921 48 876 q 129 997 92 968 q 245 1032 176 1032 q 353 1003 309 1032 l 363 1035 l 446 1035 l 415 933 q 441 850 433 900 q 446 811 446 829 l 446 210 q 421 98 444 144 q 361 24 402 55 q 245 -11 318 -11 q 138 18 180 -11 l 127 -14 l 40 -14 m 196 210 q 216 146 196 170 q 245 135 227 135 q 290 172 281 135 q 296 210 296 185 l 296 541 l 196 210 m 196 493 l 296 818 q 288 859 296 833 q 245 886 275 886 q 201 848 213 886 q 196 811 196 834 l 196 493 "},"Ù":{"ha":508,"x_min":54,"x_max":454,"o":"m 54 210 l 54 1021 l 204 1021 l 204 210 q 225 146 204 170 q 254 135 236 135 q 298 172 289 135 q 304 210 304 186 l 304 1021 l 454 1021 l 454 210 q 429 98 452 145 q 370 24 410 54 q 254 -11 327 -11 q 138 24 180 -11 q 79 98 100 53 q 54 210 56 145 m 98 1236 l 244 1236 l 317 1111 l 208 1111 l 98 1236 "},"Ú":{"ha":508,"x_min":54,"x_max":454,"o":"m 54 210 l 54 1021 l 204 1021 l 204 210 q 225 146 204 170 q 254 135 236 135 q 298 172 289 135 q 304 210 304 186 l 304 1021 l 454 1021 l 454 210 q 429 98 452 145 q 370 24 410 54 q 254 -11 327 -11 q 138 24 180 -11 q 79 98 100 53 q 54 210 56 145 m 208 1111 l 281 1236 l 427 1236 l 317 1111 l 208 1111 "},"Û":{"ha":508,"x_min":54,"x_max":454,"o":"m 54 210 l 54 1021 l 204 1021 l 204 210 q 225 146 204 170 q 254 135 236 135 q 298 172 289 135 q 304 210 304 186 l 304 1021 l 454 1021 l 454 210 q 429 98 452 145 q 370 24 410 54 q 254 -11 327 -11 q 138 24 180 -11 q 79 98 100 53 q 54 210 56 145 m 85 1111 l 180 1236 l 329 1236 l 425 1111 l 297 1111 l 254 1160 l 212 1111 l 85 1111 "},"Ü":{"ha":508,"x_min":54,"x_max":454,"o":"m 54 210 l 54 1021 l 204 1021 l 204 210 q 225 146 204 170 q 254 135 236 135 q 298 172 289 135 q 304 210 304 186 l 304 1021 l 454 1021 l 454 210 q 429 98 452 145 q 370 24 410 54 q 254 -11 327 -11 q 138 24 180 -11 q 79 98 100 53 q 54 210 56 145 m 92 1111 l 92 1247 l 221 1247 l 221 1111 l 92 1111 m 288 1111 l 288 1247 l 416 1247 l 416 1111 l 288 1111 "},"Ý":{"ha":477,"x_min":11,"x_max":467,"o":"m 11 1021 l 158 1021 l 233 694 l 237 685 l 240 685 l 244 694 l 319 1021 l 467 1021 l 314 435 l 314 0 l 164 0 l 164 435 l 11 1021 m 172 1111 l 244 1236 l 390 1236 l 281 1111 l 172 1111 "},"Þ":{"ha":491,"x_min":56,"x_max":469,"o":"m 56 0 l 56 1021 l 204 1021 l 204 857 l 205 857 q 386 793 318 857 q 469 551 469 714 q 386 311 469 390 q 205 244 315 244 l 205 0 l 56 0 m 205 397 q 297 429 274 397 q 318 546 318 457 q 297 668 318 637 q 205 704 273 704 l 205 397 "},"ß":{"ha":497,"x_min":45,"x_max":461,"o":"m 45 0 l 45 838 q 90 974 45 924 q 235 1032 144 1032 q 374 975 326 1032 q 418 839 418 923 q 358 721 418 766 q 433 619 408 692 q 461 390 461 539 q 403 68 461 152 q 335 15 376 29 q 235 0 294 0 l 235 131 q 300 176 283 131 q 321 390 321 234 q 300 615 321 555 q 235 664 283 664 l 235 760 q 276 781 259 760 q 293 839 293 803 q 278 888 293 869 q 235 907 263 907 q 197 887 210 907 q 184 838 184 867 l 184 0 l 45 0 "},"à":{"ha":462,"x_min":33,"x_max":418,"o":"m 33 176 q 92 364 33 292 q 201 450 131 413 q 215 458 206 453 q 229 465 224 463 q 240 471 233 467 q 251 477 247 475 q 258 483 254 479 q 264 489 262 486 q 268 496 267 492 l 268 579 q 264 625 268 612 q 229 648 254 648 q 192 608 199 648 q 189 572 189 587 l 189 536 l 49 536 l 49 568 q 103 711 49 650 q 237 771 156 771 q 357 722 306 771 q 408 599 408 673 l 408 132 q 418 0 408 58 l 281 0 q 268 61 268 16 l 258 61 q 220 16 243 35 q 146 -11 186 -11 q 77 24 104 -11 q 33 176 33 72 m 69 1010 l 215 1010 l 288 885 l 179 885 l 69 1010 m 171 197 q 178 155 171 175 q 210 126 187 126 q 251 139 234 126 q 268 172 268 153 l 268 367 q 195 300 219 346 q 171 197 171 254 "},"á":{"ha":462,"x_min":33,"x_max":418,"o":"m 33 176 q 92 364 33 292 q 201 450 131 413 q 215 458 206 453 q 229 465 224 463 q 240 471 233 467 q 251 477 247 475 q 258 483 254 479 q 264 489 262 486 q 268 496 267 492 l 268 579 q 264 625 268 612 q 229 648 254 648 q 192 608 199 648 q 189 572 189 587 l 189 536 l 49 536 l 49 568 q 103 711 49 650 q 237 771 156 771 q 357 722 306 771 q 408 599 408 673 l 408 132 q 418 0 408 58 l 281 0 q 268 61 268 16 l 258 61 q 220 16 243 35 q 146 -11 186 -11 q 77 24 104 -11 q 33 176 33 72 m 171 197 q 178 155 171 175 q 210 126 187 126 q 251 139 234 126 q 268 172 268 153 l 268 367 q 195 300 219 346 q 171 197 171 254 m 179 885 l 252 1010 l 397 1010 l 288 885 l 179 885 "},"â":{"ha":462,"x_min":33,"x_max":418,"o":"m 33 176 q 92 364 33 292 q 201 450 131 413 q 215 458 206 453 q 229 465 224 463 q 240 471 233 467 q 251 477 247 475 q 258 483 254 479 q 264 489 262 486 q 268 496 267 492 l 268 579 q 264 625 268 612 q 229 648 254 648 q 192 608 199 648 q 189 572 189 587 l 189 536 l 49 536 l 49 568 q 103 711 49 650 q 237 771 156 771 q 357 722 306 771 q 408 599 408 673 l 408 132 q 418 0 408 58 l 281 0 q 268 61 268 16 l 258 61 q 220 16 243 35 q 146 -11 186 -11 q 77 24 104 -11 q 33 176 33 72 m 61 885 l 157 1010 l 306 1010 l 401 885 l 273 885 l 231 933 l 189 885 l 61 885 m 171 197 q 178 155 171 175 q 210 126 187 126 q 251 139 234 126 q 268 172 268 153 l 268 367 q 195 300 219 346 q 171 197 171 254 "},"ã":{"ha":462,"x_min":33,"x_max":418,"o":"m 33 176 q 92 364 33 292 q 201 450 131 413 q 215 458 206 453 q 229 465 224 463 q 240 471 233 467 q 251 477 247 475 q 258 483 254 479 q 264 489 262 486 q 268 496 267 492 l 268 579 q 264 625 268 612 q 229 648 254 648 q 192 608 199 648 q 189 572 189 587 l 189 536 l 49 536 l 49 568 q 103 711 49 650 q 237 771 156 771 q 357 722 306 771 q 408 599 408 673 l 408 132 q 418 0 408 58 l 281 0 q 268 61 268 16 l 258 61 q 220 16 243 35 q 146 -11 186 -11 q 77 24 104 -11 q 33 176 33 72 m 97 885 l 97 987 q 143 1010 114 1000 q 171 1014 155 1014 q 232 1003 201 1014 q 293 987 265 989 q 345 999 311 987 q 355 1004 347 1000 q 367 1010 363 1008 l 367 907 q 321 885 351 892 q 293 880 307 880 q 233 893 262 880 q 171 907 205 905 q 119 896 151 907 q 109 891 117 895 q 97 885 101 887 m 171 197 q 178 155 171 175 q 210 126 187 126 q 251 139 234 126 q 268 172 268 153 l 268 367 q 195 300 219 346 q 171 197 171 254 "},"ä":{"ha":462,"x_min":33,"x_max":418,"o":"m 33 176 q 92 364 33 292 q 201 450 131 413 q 215 458 206 453 q 229 465 224 463 q 240 471 233 467 q 251 477 247 475 q 258 483 254 479 q 264 489 262 486 q 268 496 267 492 l 268 579 q 264 625 268 612 q 229 648 254 648 q 192 608 199 648 q 189 572 189 587 l 189 536 l 49 536 l 49 568 q 103 711 49 650 q 237 771 156 771 q 357 722 306 771 q 408 599 408 673 l 408 132 q 418 0 408 58 l 281 0 q 268 61 268 16 l 258 61 q 220 16 243 35 q 146 -11 186 -11 q 77 24 104 -11 q 33 176 33 72 m 69 885 l 69 1021 l 199 1021 l 199 885 l 69 885 m 171 197 q 178 155 171 175 q 210 126 187 126 q 251 139 234 126 q 268 172 268 153 l 268 367 q 195 300 219 346 q 171 197 171 254 m 265 885 l 265 1021 l 395 1021 l 395 885 l 265 885 "},"å":{"ha":462,"x_min":33,"x_max":418,"o":"m 33 176 q 92 364 33 292 q 201 450 131 413 q 215 458 206 453 q 229 465 224 463 q 240 471 233 467 q 251 477 247 475 q 258 483 254 479 q 264 489 262 486 q 268 496 267 492 l 268 579 q 264 625 268 612 q 229 648 254 648 q 192 608 199 648 q 189 572 189 587 l 189 536 l 49 536 l 49 568 q 103 711 49 650 q 237 771 156 771 q 357 722 306 771 q 408 599 408 673 l 408 132 q 418 0 408 58 l 281 0 q 268 61 268 16 l 258 61 q 220 16 243 35 q 146 -11 186 -11 q 77 24 104 -11 q 33 176 33 72 m 158 1034 q 232 1061 189 1061 q 305 1034 275 1061 q 335 964 335 1006 q 305 894 335 922 q 232 867 275 867 q 158 894 189 867 q 127 964 127 922 q 143 1020 127 1006 q 158 1034 158 1034 m 171 197 q 178 155 171 175 q 210 126 187 126 q 251 139 234 126 q 268 172 268 153 l 268 367 q 195 300 219 346 q 171 197 171 254 m 196 930 q 232 916 212 916 q 268 930 252 916 q 283 964 283 944 q 268 998 283 983 q 232 1013 252 1013 q 196 998 212 1013 q 180 964 180 983 q 188 937 180 944 q 196 930 196 930 "},"æ":{"ha":671,"x_min":33,"x_max":631,"o":"m 33 176 q 92 364 33 292 q 201 450 131 413 q 215 458 206 453 q 229 465 224 463 q 240 471 233 467 q 251 477 247 475 q 258 483 254 479 q 264 489 262 486 q 268 496 267 492 l 268 579 q 264 625 268 612 q 229 648 254 648 q 192 608 199 648 q 189 572 189 587 l 189 536 l 49 536 l 49 568 q 103 711 49 650 q 237 771 156 771 q 340 736 295 771 q 450 771 385 771 q 608 672 563 771 q 631 575 629 623 l 631 354 l 399 354 l 399 189 q 421 123 401 150 q 450 113 432 113 q 494 150 485 113 q 500 189 500 164 l 500 272 l 631 272 l 631 184 q 609 89 627 128 q 554 20 591 50 q 449 -11 517 -11 q 296 78 341 -11 q 146 -11 227 -11 q 77 24 104 -11 q 33 176 33 72 m 171 197 q 178 155 171 175 q 210 126 187 126 q 251 139 234 126 q 268 172 268 153 l 268 367 q 195 300 219 346 q 171 197 171 254 m 399 464 l 500 464 l 500 571 q 481 637 500 614 q 450 648 470 648 q 406 610 418 648 q 399 571 401 597 l 399 464 "},"ç":{"ha":437,"x_min":45,"x_max":404,"o":"m 45 214 l 45 546 q 96 722 45 667 q 224 771 140 771 q 358 725 316 771 q 404 553 404 675 l 404 493 l 264 493 l 264 585 q 256 633 264 620 q 224 646 248 646 q 197 635 206 646 q 186 613 188 625 q 184 585 184 602 l 184 175 q 186 146 184 157 q 197 124 188 135 q 224 114 206 114 q 256 127 248 114 q 264 175 264 140 l 264 281 l 404 281 l 404 207 q 358 35 404 85 q 224 -11 316 -11 q 96 37 140 -11 q 45 214 45 92 m 161 -75 l 278 -75 l 278 -171 l 248 -261 l 176 -261 l 204 -171 l 161 -171 l 161 -75 "},"è":{"ha":447,"x_min":45,"x_max":407,"o":"m 45 189 l 45 571 q 122 741 51 682 q 227 771 157 771 q 385 672 339 771 q 407 575 405 623 l 407 354 l 175 354 l 175 189 q 197 123 177 150 q 227 113 208 113 q 271 150 261 113 q 277 189 277 166 l 277 272 l 407 272 l 407 184 q 386 89 404 128 q 330 20 368 50 q 225 -11 294 -11 q 66 89 111 -11 q 45 189 47 136 m 69 1010 l 215 1010 l 288 885 l 179 885 l 69 1010 m 175 464 l 277 464 l 277 571 q 257 637 277 613 q 227 648 246 648 q 182 610 194 648 q 175 571 177 597 l 175 464 "},"é":{"ha":447,"x_min":45,"x_max":407,"o":"m 45 189 l 45 571 q 122 741 51 682 q 227 771 157 771 q 385 672 339 771 q 407 575 405 623 l 407 354 l 175 354 l 175 189 q 197 123 177 150 q 227 113 208 113 q 271 150 261 113 q 277 189 277 166 l 277 272 l 407 272 l 407 184 q 386 89 404 128 q 330 20 368 50 q 225 -11 294 -11 q 66 89 111 -11 q 45 189 47 136 m 175 464 l 277 464 l 277 571 q 257 637 277 613 q 227 648 246 648 q 182 610 194 648 q 175 571 177 597 l 175 464 m 179 885 l 252 1010 l 397 1010 l 288 885 l 179 885 "},"ê":{"ha":447,"x_min":45,"x_max":407,"o":"m 45 189 l 45 571 q 122 741 51 682 q 227 771 157 771 q 385 672 339 771 q 407 575 405 623 l 407 354 l 175 354 l 175 189 q 197 123 177 150 q 227 113 208 113 q 271 150 261 113 q 277 189 277 166 l 277 272 l 407 272 l 407 184 q 386 89 404 128 q 330 20 368 50 q 225 -11 294 -11 q 66 89 111 -11 q 45 189 47 136 m 54 885 l 150 1010 l 298 1010 l 395 885 l 267 885 l 224 933 l 182 885 l 54 885 m 175 464 l 277 464 l 277 571 q 257 637 277 613 q 227 648 246 648 q 182 610 194 648 q 175 571 177 597 l 175 464 "},"ë":{"ha":447,"x_min":45,"x_max":407,"o":"m 45 189 l 45 571 q 122 741 51 682 q 227 771 157 771 q 385 672 339 771 q 407 575 405 623 l 407 354 l 175 354 l 175 189 q 197 123 177 150 q 227 113 208 113 q 271 150 261 113 q 277 189 277 166 l 277 272 l 407 272 l 407 184 q 386 89 404 128 q 330 20 368 50 q 225 -11 294 -11 q 66 89 111 -11 q 45 189 47 136 m 61 885 l 61 1021 l 191 1021 l 191 885 l 61 885 m 175 464 l 277 464 l 277 571 q 257 637 277 613 q 227 648 246 648 q 182 610 194 648 q 175 571 177 597 l 175 464 m 257 885 l 257 1021 l 386 1021 l 386 885 l 257 885 "},"ì":{"ha":251,"x_min":-22,"x_max":196,"o":"m -22 1010 l 123 1010 l 196 885 l 87 885 l -22 1010 m 56 0 l 56 760 l 196 760 l 196 0 l 56 0 "},"í":{"ha":251,"x_min":56,"x_max":273,"o":"m 56 0 l 56 760 l 196 760 l 196 0 l 56 0 m 56 885 l 127 1010 l 273 1010 l 164 885 l 56 885 "},"î":{"ha":251,"x_min":-45,"x_max":296,"o":"m -45 885 l 52 1010 l 200 1010 l 296 885 l 168 885 l 125 933 l 83 885 l -45 885 m 56 0 l 56 760 l 196 760 l 196 0 l 56 0 "},"ï":{"ha":252,"x_min":-36,"x_max":289,"o":"m -36 885 l -36 1021 l 93 1021 l 93 885 l -36 885 m 56 0 l 56 760 l 196 760 l 196 0 l 56 0 m 160 885 l 160 1021 l 289 1021 l 289 885 l 160 885 "},"ð":{"ha":456,"x_min":52,"x_max":411,"o":"m 52 189 l 52 582 q 65 688 52 643 q 168 771 92 771 q 273 718 212 771 q 239 856 263 801 l 183 807 l 146 850 l 214 909 q 192 943 197 938 q 183 954 184 951 l 257 1022 q 262 1016 259 1020 q 268 1010 266 1012 l 281 997 l 293 981 l 357 1036 l 395 991 l 326 932 q 411 629 411 800 l 411 184 q 390 89 408 128 q 336 20 372 50 q 231 -11 300 -11 q 74 89 119 -11 q 52 189 54 138 m 183 189 q 201 123 181 149 q 231 113 212 113 q 275 150 266 113 q 279 189 281 166 l 279 571 q 261 637 281 612 q 231 648 250 648 q 187 610 197 648 q 183 571 181 593 l 183 189 "},"ñ":{"ha":468,"x_min":56,"x_max":415,"o":"m 56 0 l 56 760 l 196 760 l 196 696 q 212 711 197 696 q 273 761 248 747 q 310 771 292 771 q 390 721 359 771 q 415 623 415 677 l 415 0 l 275 0 l 275 602 q 241 635 275 635 q 208 616 227 635 q 196 599 200 606 l 196 0 l 56 0 m 100 885 l 100 987 q 146 1010 117 1000 q 174 1014 158 1014 q 235 1003 203 1014 q 296 987 268 989 q 347 999 314 987 q 357 1004 349 1000 q 370 1010 366 1008 l 370 907 q 323 885 353 892 q 296 880 309 880 q 236 893 265 880 q 174 907 208 905 q 122 896 153 907 q 112 891 120 895 q 100 885 104 887 "},"ò":{"ha":446,"x_min":43,"x_max":403,"o":"m 43 189 l 43 571 q 118 741 49 682 q 222 771 153 771 q 380 672 335 771 q 403 575 401 623 l 403 184 q 382 89 399 129 q 328 20 364 50 q 222 -11 291 -11 q 65 89 110 -11 q 43 189 45 138 m 66 1010 l 212 1010 l 285 885 l 176 885 l 66 1010 m 175 189 q 193 123 173 149 q 222 113 204 113 q 267 150 257 113 q 271 189 273 166 l 271 571 q 253 637 273 613 q 222 648 242 648 q 179 610 189 648 q 175 571 173 593 l 175 189 "},"ó":{"ha":446,"x_min":43,"x_max":403,"o":"m 43 189 l 43 571 q 118 741 49 682 q 222 771 153 771 q 380 672 335 771 q 403 575 401 623 l 403 184 q 382 89 399 129 q 328 20 364 50 q 222 -11 291 -11 q 65 89 110 -11 q 43 189 45 138 m 175 189 q 193 123 173 149 q 222 113 204 113 q 267 150 257 113 q 271 189 273 166 l 271 571 q 253 637 273 613 q 222 648 242 648 q 179 610 189 648 q 175 571 173 593 l 175 189 m 176 885 l 249 1010 l 395 1010 l 285 885 l 176 885 "},"ô":{"ha":446,"x_min":43,"x_max":403,"o":"m 43 189 l 43 571 q 118 741 49 682 q 222 771 153 771 q 380 672 335 771 q 403 575 401 623 l 403 184 q 382 89 399 129 q 328 20 364 50 q 222 -11 291 -11 q 65 89 110 -11 q 43 189 45 138 m 53 885 l 149 1010 l 297 1010 l 393 885 l 265 885 l 222 933 l 180 885 l 53 885 m 175 189 q 193 123 173 149 q 222 113 204 113 q 267 150 257 113 q 271 189 273 166 l 271 571 q 253 637 273 613 q 222 648 242 648 q 179 610 189 648 q 175 571 173 593 l 175 189 "},"õ":{"ha":446,"x_min":43,"x_max":403,"o":"m 43 189 l 43 571 q 118 741 49 682 q 222 771 153 771 q 380 672 335 771 q 403 575 401 623 l 403 184 q 382 89 399 129 q 328 20 364 50 q 222 -11 291 -11 q 65 89 110 -11 q 43 189 45 138 m 89 885 l 89 987 q 135 1010 106 1000 q 163 1014 147 1014 q 224 1003 193 1014 q 285 987 257 989 q 336 999 303 987 l 358 1010 l 358 907 q 313 885 341 892 q 285 880 298 880 q 225 893 254 880 q 163 907 197 905 q 111 896 142 907 q 101 891 109 895 q 89 885 93 887 m 175 189 q 193 123 173 149 q 222 113 204 113 q 267 150 257 113 q 271 189 273 166 l 271 571 q 253 637 273 613 q 222 648 242 648 q 179 610 189 648 q 175 571 173 593 l 175 189 "},"ö":{"ha":446,"x_min":43,"x_max":403,"o":"m 43 189 l 43 571 q 118 741 49 682 q 222 771 153 771 q 380 672 335 771 q 403 575 401 623 l 403 184 q 382 89 399 129 q 328 20 364 50 q 222 -11 291 -11 q 65 89 110 -11 q 43 189 45 138 m 61 885 l 61 1021 l 191 1021 l 191 885 l 61 885 m 175 189 q 193 123 173 149 q 222 113 204 113 q 267 150 257 113 q 271 189 273 166 l 271 571 q 253 637 273 613 q 222 648 242 648 q 179 610 189 648 q 175 571 173 593 l 175 189 m 257 885 l 257 1021 l 386 1021 l 386 885 l 257 885 "},"ø":{"ha":446,"x_min":43,"x_max":403,"o":"m 43 189 l 43 571 q 118 741 49 682 q 222 771 153 771 q 294 758 254 771 l 309 812 l 359 812 l 339 730 q 395 632 375 697 q 403 575 401 605 l 403 184 q 382 89 399 129 q 328 20 364 50 q 222 -11 291 -11 q 153 0 186 -11 l 139 -53 l 85 -53 l 106 29 q 50 131 63 68 q 43 189 43 164 m 175 296 l 260 625 q 222 648 250 648 q 179 610 189 648 q 175 571 173 593 l 175 296 m 186 134 q 222 113 197 113 q 267 150 257 113 q 271 189 273 166 l 271 463 l 186 134 "},"ù":{"ha":468,"x_min":53,"x_max":412,"o":"m 53 138 l 53 760 l 193 760 l 193 158 q 202 132 193 138 q 227 125 211 125 q 260 143 241 125 q 272 161 263 146 l 272 760 l 412 760 l 412 0 l 272 0 l 272 64 q 257 50 269 62 q 196 0 220 13 q 158 -11 176 -11 q 78 40 108 -11 q 53 138 53 81 m 77 1010 l 222 1010 l 294 885 l 186 885 l 77 1010 "},"ú":{"ha":468,"x_min":53,"x_max":412,"o":"m 53 138 l 53 760 l 193 760 l 193 158 q 202 132 193 138 q 227 125 211 125 q 260 143 241 125 q 272 161 263 146 l 272 760 l 412 760 l 412 0 l 272 0 l 272 64 q 257 50 269 62 q 196 0 220 13 q 158 -11 176 -11 q 78 40 108 -11 q 53 138 53 81 m 186 885 l 258 1010 l 404 1010 l 294 885 l 186 885 "},"û":{"ha":468,"x_min":53,"x_max":412,"o":"m 53 138 l 53 760 l 193 760 l 193 158 q 202 132 193 138 q 227 125 211 125 q 260 143 241 125 q 272 161 263 146 l 272 760 l 412 760 l 412 0 l 272 0 l 272 64 q 257 50 269 62 q 196 0 220 13 q 158 -11 176 -11 q 78 40 108 -11 q 53 138 53 81 m 64 885 l 160 1010 l 309 1010 l 404 885 l 277 885 l 233 933 l 192 885 l 64 885 "},"ü":{"ha":468,"x_min":53,"x_max":412,"o":"m 53 138 l 53 760 l 193 760 l 193 158 q 202 132 193 138 q 227 125 211 125 q 260 143 241 125 q 272 161 263 146 l 272 760 l 412 760 l 412 0 l 272 0 l 272 64 q 257 50 269 62 q 196 0 220 13 q 158 -11 176 -11 q 78 40 108 -11 q 53 138 53 81 m 72 885 l 72 1021 l 201 1021 l 201 885 l 72 885 m 268 885 l 268 1021 l 397 1021 l 397 885 l 268 885 "},"ý":{"ha":430,"x_min":17,"x_max":414,"o":"m 17 760 l 154 760 l 210 293 l 212 254 l 218 254 l 221 293 l 277 760 l 414 760 l 279 -57 q 218 -204 269 -144 q 85 -272 162 -272 l 68 -272 q 22 -269 56 -272 l 22 -144 q 31 -146 24 -146 q 57 -146 33 -149 q 94 -134 80 -144 q 140 -64 128 -108 q 146 -22 146 -45 l 17 760 m 157 885 l 229 1010 l 375 1010 l 265 885 l 157 885 "},"þ":{"ha":465,"x_min":56,"x_max":415,"o":"m 56 -261 l 56 1021 l 196 1021 l 196 710 q 268 761 234 746 q 307 771 286 771 q 390 721 357 771 q 415 623 415 677 l 415 138 q 390 40 415 81 q 307 -11 358 -11 q 232 20 273 -11 q 196 50 219 30 l 196 -261 l 56 -261 m 196 167 q 209 135 196 150 q 237 121 222 121 q 264 134 253 121 q 275 167 275 147 l 275 593 q 264 626 275 612 q 237 639 253 639 q 209 626 221 639 q 196 593 196 612 l 196 167 "},"ÿ":{"ha":430,"x_min":17,"x_max":414,"o":"m 17 760 l 154 760 l 210 293 l 212 254 l 218 254 l 221 293 l 277 760 l 414 760 l 279 -57 q 218 -204 269 -144 q 85 -272 162 -272 l 68 -272 q 22 -269 56 -272 l 22 -144 q 31 -146 24 -146 q 57 -146 33 -149 q 94 -134 80 -144 q 140 -64 128 -108 q 146 -22 146 -45 l 17 760 m 53 885 l 53 1021 l 182 1021 l 182 885 l 53 885 m 249 885 l 249 1021 l 378 1021 l 378 885 l 249 885 "},"Œ":{"ha":667,"x_min":46,"x_max":639,"o":"m 46 210 l 46 811 q 71 916 48 872 q 129 989 92 963 q 245 1021 174 1021 l 639 1021 l 639 867 l 446 867 l 446 599 l 585 599 l 585 435 l 446 435 l 446 154 l 639 154 l 639 0 l 245 0 q 129 33 176 0 q 71 104 91 60 q 46 210 48 148 m 196 210 q 216 146 196 170 q 245 135 227 135 q 290 172 281 135 q 296 210 296 185 l 296 821 q 286 861 296 842 q 245 886 274 886 q 201 848 213 886 q 196 811 196 834 l 196 210 "},"œ":{"ha":675,"x_min":43,"x_max":635,"o":"m 43 189 l 43 571 q 118 741 49 682 q 222 771 153 771 q 339 730 294 771 q 454 771 385 771 q 612 672 567 771 q 635 575 633 623 l 635 354 l 403 354 l 403 184 q 411 144 403 165 q 454 113 424 113 q 498 150 489 113 q 504 189 504 164 l 504 272 l 635 272 l 635 184 q 613 89 631 128 q 558 20 595 50 q 453 -11 522 -11 q 338 28 381 -11 q 222 -11 292 -11 q 65 89 110 -11 q 43 189 45 138 m 175 189 q 193 123 173 149 q 222 113 204 113 q 267 150 257 113 q 271 189 273 166 l 271 571 q 253 637 273 613 q 222 648 242 648 q 179 610 189 648 q 175 571 173 593 l 175 189 m 403 464 l 504 464 l 504 571 q 485 637 504 614 q 454 648 474 648 q 411 616 424 648 q 403 575 403 596 l 403 464 "},"Ÿ":{"ha":477,"x_min":11,"x_max":467,"o":"m 11 1021 l 158 1021 l 233 694 l 237 685 l 240 685 l 244 694 l 319 1021 l 467 1021 l 314 435 l 314 0 l 164 0 l 164 435 l 11 1021 m 77 1111 l 77 1247 l 205 1247 l 205 1111 l 77 1111 m 272 1111 l 272 1247 l 401 1247 l 401 1111 l 272 1111 "},"ˆ":{"ha":692,"x_min":176,"x_max":517,"o":"m 176 885 l 272 1010 l 421 1010 l 517 885 l 389 885 l 346 933 l 304 885 l 176 885 "},"˜":{"ha":694,"x_min":212,"x_max":482,"o":"m 212 885 l 212 987 q 258 1010 229 1000 q 286 1014 271 1014 q 347 1003 316 1014 q 408 987 380 989 q 460 999 427 987 q 470 1004 463 1000 q 482 1010 478 1008 l 482 907 q 436 885 466 892 q 408 880 422 880 q 349 893 378 880 q 286 907 321 905 q 235 896 266 907 q 224 891 232 895 q 212 885 216 887 "}," ":{"ha":646,"x_min":0,"x_max":0,"o":""}," ":{"ha":1292,"x_min":0,"x_max":0,"o":""}," ":{"ha":646,"x_min":0,"x_max":0,"o":""}," ":{"ha":1292,"x_min":0,"x_max":0,"o":""}," ":{"ha":431,"x_min":0,"x_max":0,"o":""}," ":{"ha":323,"x_min":0,"x_max":0,"o":""}," ":{"ha":215,"x_min":0,"x_max":0,"o":""}," ":{"ha":215,"x_min":0,"x_max":0,"o":""}," ":{"ha":161,"x_min":0,"x_max":0,"o":""}," ":{"ha":258,"x_min":0,"x_max":0,"o":""}," ":{"ha":71,"x_min":0,"x_max":0,"o":""},"‐":{"ha":301,"x_min":50,"x_max":252,"o":"m 50 309 l 50 440 l 252 440 l 252 309 l 50 309 "},"‑":{"ha":301,"x_min":50,"x_max":252,"o":"m 50 309 l 50 440 l 252 440 l 252 309 l 50 309 "},"‒":{"ha":301,"x_min":50,"x_max":252,"o":"m 50 309 l 50 440 l 252 440 l 252 309 l 50 309 "},"–":{"ha":547,"x_min":50,"x_max":497,"o":"m 50 440 l 50 572 l 497 572 l 497 440 l 50 440 "},"—":{"ha":659,"x_min":50,"x_max":610,"o":"m 50 440 l 50 572 l 610 572 l 610 440 l 50 440 "},"‘":{"ha":210,"x_min":33,"x_max":179,"o":"m 33 686 l 33 840 l 110 1021 l 179 1021 l 131 840 l 179 840 l 179 686 l 33 686 "},"’":{"ha":210,"x_min":31,"x_max":176,"o":"m 31 686 l 79 867 l 31 867 l 31 1021 l 176 1021 l 176 867 l 100 686 l 31 686 "},"‚":{"ha":210,"x_min":31,"x_max":176,"o":"m 31 0 l 31 154 l 176 154 l 176 0 l 100 -180 l 31 -180 l 79 0 l 31 0 "},"“":{"ha":423,"x_min":36,"x_max":387,"o":"m 36 686 l 36 840 l 113 1021 l 182 1021 l 134 840 l 182 840 l 182 686 l 36 686 m 241 686 l 241 840 l 318 1021 l 387 1021 l 339 840 l 387 840 l 387 686 l 241 686 "},"”":{"ha":423,"x_min":36,"x_max":387,"o":"m 36 686 l 85 867 l 36 867 l 36 1021 l 182 1021 l 182 867 l 106 686 l 36 686 m 241 686 l 290 867 l 241 867 l 241 1021 l 387 1021 l 387 867 l 311 686 l 241 686 "},"„":{"ha":423,"x_min":36,"x_max":387,"o":"m 36 0 l 36 154 l 182 154 l 182 0 l 106 -180 l 36 -180 l 85 0 l 36 0 m 241 0 l 241 154 l 387 154 l 387 0 l 311 -180 l 241 -180 l 290 0 l 241 0 "},"•":{"ha":450,"x_min":56,"x_max":395,"o":"m 56 554 q 106 673 56 623 q 227 722 155 722 q 346 673 297 722 q 395 554 395 625 q 346 433 395 482 q 227 383 296 383 q 106 433 156 383 q 56 554 56 484 "},"…":{"ha":654,"x_min":36,"x_max":618,"o":"m 36 0 l 36 154 l 182 154 l 182 0 l 36 0 m 254 0 l 254 154 l 400 154 l 400 0 l 254 0 m 472 0 l 472 154 l 618 154 l 618 0 l 472 0 "}," ":{"ha":258,"x_min":0,"x_max":0,"o":""}," ":{"ha":323,"x_min":0,"x_max":0,"o":""},"€":{"ha":551,"x_min":36,"x_max":509,"o":"m 36 371 l 36 464 l 109 464 l 109 557 l 36 557 l 36 650 l 109 650 l 109 811 q 134 921 111 874 q 192 997 155 968 q 309 1032 239 1032 q 424 997 377 1032 q 484 921 463 967 q 509 811 507 874 l 509 754 l 368 754 l 368 811 q 346 875 368 850 q 311 886 334 886 q 265 848 279 886 q 258 811 261 838 l 258 650 l 416 650 l 416 557 l 258 557 l 258 464 l 416 464 l 416 371 l 258 371 l 258 210 q 282 146 260 171 q 311 135 293 135 q 363 172 351 135 q 368 210 368 185 l 368 267 l 509 267 l 509 210 q 484 98 507 145 q 424 24 464 54 q 309 -11 381 -11 q 192 24 235 -11 q 134 98 154 53 q 109 210 111 145 l 109 371 l 36 371 "},"™":{"ha":635,"x_min":50,"x_max":581,"o":"m 50 950 l 50 1021 l 268 1021 l 268 950 l 197 950 l 197 557 l 121 557 l 121 950 l 50 950 m 298 557 l 298 1021 l 392 1021 l 437 804 l 441 804 l 488 1021 l 581 1021 l 581 557 l 510 557 l 510 861 l 457 557 l 422 557 l 368 861 l 368 557 l 298 557 "},"":{"ha":757,"x_min":0,"x_max":757,"o":"m 0 0 l 757 0 l 757 757 l 0 757 l 0 0 "},"ﬁ":{"ha":524,"x_min":14,"x_max":468,"o":"m 14 633 l 14 760 l 85 760 l 85 781 q 106 936 85 886 q 257 1031 144 1031 q 326 1025 299 1031 q 341 1023 331 1024 q 357 1021 352 1021 l 357 896 q 338 900 351 897 q 282 904 301 904 q 231 856 243 904 q 225 814 225 838 l 225 779 l 225 760 l 468 760 l 468 0 l 328 0 l 328 633 l 225 633 l 225 0 l 85 0 l 85 633 l 14 633 "},"ﬂ":{"ha":524,"x_min":14,"x_max":468,"o":"m 14 633 l 14 760 l 85 760 l 85 781 q 106 936 85 886 q 257 1031 144 1031 q 326 1025 299 1031 q 341 1023 331 1024 q 357 1021 352 1021 l 468 1021 l 468 0 l 328 0 l 328 901 q 282 904 303 904 q 231 856 243 904 q 225 814 225 838 l 225 779 l 225 760 l 296 760 l 296 633 l 225 633 l 225 0 l 85 0 l 85 633 l 14 633 "}}}
